<?xml version="1.0" encoding="utf-8"?>
<svg viewBox="0 0 486 273" fill="none" xmlns="http://www.w3.org/2000/svg">
	<rect y="31.0419" width="486" height="4.8503" fill="url(#paint0_radial_741_1024)"></rect>
	<rect y="128.048" width="486" height="4.8503" fill="url(#paint1_radial_741_1024)"></rect>
	<rect y="225.054" width="486" height="4.8503" fill="url(#paint2_radial_741_1024)"></rect>
	<rect x="53.3535" width="378.323" height="249.305" fill="white"></rect>
	<rect x="53.3535" width="378.323" height="31.0419" fill="#31576F"></rect>
	<rect x="53.3535" y="236.695" width="378.323" height="12.6108" fill="#FFAD2D"></rect>
	<rect x="75.6646" y="51.4131" width="72.7545" height="72.7545" fill="#E6EAED"></rect>
	<rect x="171.701" y="51.4131" width="237.665" height="14.5509" fill="#E6EAED"></rect>
	<rect x="171.701" y="79.5449" width="237.665" height="5.82036" fill="#E6EAED"></rect>
	<rect x="171.701" y="93.1257" width="237.665" height="5.82036" fill="#E6EAED"></rect>
	<rect x="171.701" y="106.707" width="237.665" height="5.82036" fill="#E6EAED"></rect>
	<rect x="171.701" y="118.347" width="237.665" height="5.82036" fill="#E6EAED"></rect>
	<rect x="75.6646" y="141.629" width="333.701" height="14.5509" fill="#E6EAED"></rect>
	<rect x="75.6646" y="165.88" width="333.701" height="14.5509" fill="#E6EAED"></rect>
	<rect x="53.3535" y="222.144" width="378.323" height="14.5509" fill="#E6EAED"></rect>
	<circle cx="431.677" cy="243.485" r="29.1018" fill="#31576F"></circle>
	<rect x="428.767" y="226.994" width="5.82036" height="32.982" rx="2.91018" fill="#EBF1F3"></rect>
	<rect x="415.186" y="246.395" width="5.82036" height="32.982" rx="2.91018" transform="rotate(-90 415.186 246.395)" fill="#EBF1F3"></rect>
	<rect x="20.3714" y="0.97006" width="22.3114" height="22.3114" stroke="#52879D" stroke-width="1.94012"></rect>
	<rect x="20.3714" y="31.0419" width="22.3114" height="23.2814" stroke="#52879D" stroke-width="1.94012"></rect>
	<rect x="20.3714" y="62.0838" width="22.3114" height="22.3114" stroke="#52879D" stroke-width="1.94012"></rect>
	<rect x="31.377" y="16.2606" width="2.48035" height="11.1616" transform="rotate(-135 31.377 16.2606)" fill="#FFAD2D"></rect>
	<rect x="31.377" y="16.2606" width="2.48035" height="7.44104" transform="rotate(135 31.377 16.2606)" fill="#FFAD2D"></rect>
	<rect x="450.108" y="82.4551" width="22.3114" height="22.3114" rx="11.1557" stroke="#FFAD2D" stroke-width="1.94012"></rect>
	<rect x="454.958" y="87.3054" width="12.6108" height="12.6108" rx="6.30539" fill="#FFAD2D"></rect>
	<rect y="189" width="24" height="24" rx="3.88024" fill="#4C2C92"></rect>
	<rect x="28" y="189" width="24" height="24" rx="3.88024" fill="#003078"></rect>
	<rect x="56" y="189" width="24" height="24" rx="3.88024" fill="#1D70B8"></rect>
	<rect x="84" y="189" width="24" height="24" rx="3.88024" fill="#52879D"></rect>
	<rect x="287.138" y="141.629" width="122.228" height="67.9042" fill="#52879D"></rect>
	<path d="M304.934 155.098L301.558 165.389H298.838L303.451 152.975H305.181L304.934 155.098ZM307.739 165.389L304.354 155.098L304.081 152.975H305.829L310.467 165.389H307.739ZM307.586 160.768V162.772H301.029V160.768H307.586ZM316.478 159.941H313.289L313.272 158.185H315.95C316.421 158.185 316.808 158.125 317.109 158.006C317.41 157.881 317.635 157.702 317.783 157.469C317.936 157.23 318.013 156.94 318.013 156.599C318.013 156.212 317.939 155.9 317.791 155.661C317.649 155.422 317.425 155.249 317.118 155.141C316.816 155.033 316.427 154.979 315.95 154.979H314.176V165.389H311.618V152.975H315.95C316.671 152.975 317.317 153.044 317.885 153.18C318.459 153.317 318.945 153.524 319.343 153.802C319.741 154.081 320.045 154.433 320.255 154.86C320.465 155.28 320.571 155.781 320.571 156.36C320.571 156.872 320.454 157.344 320.221 157.776C319.994 158.208 319.633 158.56 319.138 158.833C318.649 159.106 318.01 159.256 317.22 159.285L316.478 159.941ZM316.367 165.389H312.59L313.588 163.394H316.367C316.816 163.394 317.183 163.323 317.467 163.181C317.751 163.033 317.962 162.834 318.098 162.584C318.234 162.334 318.303 162.047 318.303 161.723C318.303 161.359 318.24 161.044 318.115 160.777C317.996 160.51 317.802 160.305 317.535 160.163C317.268 160.015 316.916 159.941 316.478 159.941H314.014L314.031 158.185H317.101L317.689 158.875C318.445 158.864 319.053 158.998 319.513 159.276C319.979 159.549 320.318 159.904 320.528 160.342C320.744 160.78 320.852 161.248 320.852 161.749C320.852 162.544 320.679 163.215 320.332 163.761C319.985 164.301 319.476 164.707 318.806 164.98C318.141 165.253 317.328 165.389 316.367 165.389ZM329.966 161.271H332.515C332.464 162.107 332.234 162.848 331.825 163.496C331.421 164.144 330.856 164.65 330.128 165.014C329.406 165.378 328.537 165.56 327.519 165.56C326.723 165.56 326.01 165.423 325.379 165.15C324.748 164.872 324.208 164.474 323.759 163.957C323.316 163.44 322.978 162.814 322.745 162.081C322.512 161.348 322.395 160.527 322.395 159.617V158.756C322.395 157.847 322.514 157.025 322.753 156.292C322.998 155.553 323.344 154.925 323.793 154.408C324.248 153.891 324.791 153.493 325.422 153.214C326.053 152.936 326.758 152.796 327.536 152.796C328.571 152.796 329.443 152.984 330.154 153.359C330.87 153.734 331.424 154.252 331.816 154.911C332.214 155.57 332.453 156.32 332.532 157.162H329.975C329.946 156.662 329.847 156.238 329.676 155.891C329.506 155.539 329.247 155.275 328.9 155.098C328.559 154.917 328.105 154.826 327.536 154.826C327.11 154.826 326.738 154.905 326.419 155.064C326.101 155.223 325.834 155.465 325.618 155.789C325.402 156.113 325.24 156.522 325.132 157.017C325.03 157.506 324.978 158.08 324.978 158.739V159.617C324.978 160.259 325.027 160.825 325.123 161.314C325.22 161.797 325.368 162.206 325.567 162.542C325.771 162.871 326.033 163.121 326.351 163.292C326.675 163.457 327.064 163.539 327.519 163.539C328.053 163.539 328.494 163.454 328.841 163.283C329.187 163.113 329.452 162.86 329.634 162.525C329.821 162.189 329.932 161.771 329.966 161.271Z" fill="white"></path>
	<path d="M345.389 152.95V165.389H342.933V155.781L339.983 156.718V154.783L345.124 152.95H345.389ZM357.794 161.987C357.794 162.766 357.612 163.423 357.248 163.957C356.884 164.485 356.384 164.886 355.748 165.159C355.117 165.426 354.4 165.56 353.599 165.56C352.798 165.56 352.079 165.426 351.442 165.159C350.805 164.886 350.302 164.485 349.933 163.957C349.563 163.423 349.379 162.766 349.379 161.987C349.379 161.464 349.484 160.993 349.694 160.572C349.904 160.146 350.197 159.782 350.572 159.481C350.953 159.174 351.399 158.941 351.911 158.782C352.422 158.617 352.979 158.534 353.582 158.534C354.389 158.534 355.111 158.676 355.748 158.961C356.384 159.245 356.884 159.646 357.248 160.163C357.612 160.68 357.794 161.288 357.794 161.987ZM355.321 161.825C355.321 161.445 355.247 161.118 355.1 160.845C354.957 160.566 354.756 160.353 354.494 160.205C354.233 160.058 353.929 159.984 353.582 159.984C353.235 159.984 352.931 160.058 352.67 160.205C352.408 160.353 352.204 160.566 352.056 160.845C351.914 161.118 351.843 161.445 351.843 161.825C351.843 162.201 351.914 162.525 352.056 162.797C352.204 163.07 352.408 163.28 352.67 163.428C352.937 163.57 353.247 163.641 353.599 163.641C353.951 163.641 354.256 163.57 354.511 163.428C354.773 163.28 354.972 163.07 355.108 162.797C355.25 162.525 355.321 162.201 355.321 161.825ZM357.529 156.266C357.529 156.897 357.362 157.457 357.026 157.946C356.691 158.429 356.225 158.807 355.628 159.08C355.037 159.353 354.361 159.489 353.599 159.489C352.832 159.489 352.15 159.353 351.553 159.08C350.956 158.807 350.49 158.429 350.155 157.946C349.819 157.457 349.652 156.897 349.652 156.266C349.652 155.516 349.819 154.885 350.155 154.374C350.496 153.856 350.962 153.464 351.553 153.197C352.15 152.93 352.826 152.796 353.582 152.796C354.349 152.796 355.029 152.93 355.62 153.197C356.216 153.464 356.683 153.856 357.018 154.374C357.359 154.885 357.529 155.516 357.529 156.266ZM355.074 156.377C355.074 156.042 355.014 155.752 354.895 155.508C354.776 155.258 354.605 155.064 354.383 154.928C354.167 154.792 353.9 154.723 353.582 154.723C353.275 154.723 353.011 154.789 352.789 154.919C352.573 155.05 352.405 155.241 352.286 155.491C352.172 155.735 352.116 156.031 352.116 156.377C352.116 156.713 352.172 157.008 352.286 157.264C352.405 157.514 352.576 157.71 352.798 157.852C353.019 157.994 353.286 158.065 353.599 158.065C353.912 158.065 354.176 157.994 354.392 157.852C354.614 157.71 354.781 157.514 354.895 157.264C355.014 157.008 355.074 156.713 355.074 156.377ZM362.014 157.938V168.936H359.559V156.164H361.835L362.014 157.938ZM367.854 160.674V160.853C367.854 161.524 367.775 162.147 367.616 162.721C367.462 163.295 367.235 163.795 366.934 164.221C366.632 164.642 366.257 164.971 365.808 165.21C365.365 165.443 364.853 165.56 364.273 165.56C363.711 165.56 363.222 165.446 362.807 165.219C362.392 164.991 362.043 164.673 361.758 164.264C361.48 163.849 361.255 163.369 361.085 162.823C360.914 162.277 360.784 161.692 360.693 161.067V160.598C360.784 159.927 360.914 159.313 361.085 158.756C361.255 158.193 361.48 157.707 361.758 157.298C362.043 156.883 362.389 156.562 362.798 156.335C363.213 156.107 363.699 155.994 364.256 155.994C364.842 155.994 365.356 156.104 365.8 156.326C366.249 156.548 366.624 156.866 366.925 157.281C367.232 157.696 367.462 158.191 367.616 158.765C367.775 159.339 367.854 159.975 367.854 160.674ZM365.39 160.853V160.674C365.39 160.282 365.356 159.921 365.288 159.592C365.226 159.256 365.123 158.964 364.981 158.713C364.845 158.463 364.663 158.27 364.435 158.134C364.214 157.992 363.944 157.921 363.626 157.921C363.29 157.921 363.003 157.975 362.764 158.083C362.531 158.191 362.341 158.347 362.193 158.551C362.045 158.756 361.935 159 361.861 159.285C361.787 159.569 361.741 159.89 361.724 160.248V161.433C361.753 161.854 361.832 162.232 361.963 162.567C362.094 162.897 362.295 163.158 362.568 163.352C362.841 163.545 363.199 163.641 363.643 163.641C363.967 163.641 364.239 163.57 364.461 163.428C364.683 163.28 364.862 163.079 364.998 162.823C365.14 162.567 365.24 162.272 365.297 161.936C365.359 161.601 365.39 161.24 365.39 160.853ZM371.222 156.164L372.748 158.969L374.317 156.164H376.934L374.326 160.674L377.054 165.389H374.428L372.765 162.422L371.103 165.389H368.477L371.205 160.674L368.596 156.164H371.222Z" fill="white"></path>
	<path d="M303.473 174.931L300.277 183.731H298.971L302.651 174.075H303.493L303.473 174.931ZM306.152 183.731L302.949 174.931L302.929 174.075H303.772L307.465 183.731H306.152ZM305.987 180.156V181.204H300.562V180.156H305.987ZM308.566 173.545H309.799V182.338L309.693 183.731H308.566V173.545ZM314.647 180.083V180.223C314.647 180.744 314.585 181.228 314.461 181.675C314.337 182.117 314.156 182.502 313.918 182.829C313.679 183.156 313.387 183.41 313.042 183.591C312.697 183.773 312.302 183.863 311.855 183.863C311.4 183.863 311 183.786 310.655 183.631C310.315 183.472 310.027 183.244 309.793 182.948C309.559 182.652 309.371 182.294 309.229 181.874C309.092 181.454 308.997 180.981 308.944 180.455V179.845C308.997 179.314 309.092 178.839 309.229 178.419C309.371 177.999 309.559 177.641 309.793 177.345C310.027 177.044 310.315 176.816 310.655 176.662C310.995 176.502 311.391 176.423 311.842 176.423C312.293 176.423 312.693 176.511 313.042 176.688C313.391 176.861 313.683 177.108 313.918 177.431C314.156 177.754 314.337 178.14 314.461 178.591C314.585 179.038 314.647 179.535 314.647 180.083ZM313.414 180.223V180.083C313.414 179.725 313.38 179.389 313.314 179.075C313.248 178.757 313.142 178.479 312.996 178.24C312.85 177.997 312.658 177.807 312.419 177.67C312.18 177.528 311.886 177.457 311.537 177.457C311.227 177.457 310.958 177.51 310.728 177.617C310.502 177.723 310.31 177.866 310.151 178.048C309.992 178.224 309.861 178.428 309.76 178.658C309.662 178.883 309.589 179.117 309.541 179.361V180.959C309.612 181.268 309.727 181.567 309.886 181.854C310.049 182.137 310.266 182.369 310.536 182.55C310.81 182.731 311.148 182.822 311.55 182.822C311.882 182.822 312.165 182.756 312.399 182.623C312.638 182.486 312.83 182.298 312.976 182.059C313.126 181.821 313.237 181.544 313.307 181.231C313.378 180.917 313.414 180.581 313.414 180.223ZM319.07 182.855C319.362 182.855 319.631 182.796 319.879 182.676C320.127 182.557 320.33 182.393 320.489 182.185C320.648 181.973 320.739 181.732 320.761 181.463H321.928C321.906 181.887 321.762 182.283 321.497 182.65C321.236 183.012 320.894 183.306 320.469 183.532C320.045 183.753 319.578 183.863 319.07 183.863C318.531 183.863 318.06 183.768 317.658 183.578C317.26 183.388 316.928 183.127 316.663 182.796C316.402 182.464 316.205 182.084 316.073 181.655C315.944 181.222 315.88 180.764 315.88 180.282V180.004C315.88 179.522 315.944 179.067 316.073 178.638C316.205 178.204 316.402 177.822 316.663 177.491C316.928 177.159 317.26 176.898 317.658 176.708C318.06 176.518 318.531 176.423 319.07 176.423C319.631 176.423 320.122 176.538 320.542 176.768C320.962 176.993 321.291 177.303 321.53 177.696C321.773 178.085 321.906 178.527 321.928 179.022H320.761C320.739 178.726 320.655 178.459 320.509 178.22C320.368 177.981 320.173 177.791 319.925 177.65C319.682 177.504 319.397 177.431 319.07 177.431C318.694 177.431 318.378 177.506 318.122 177.656C317.87 177.802 317.669 178.001 317.518 178.253C317.372 178.501 317.266 178.777 317.2 179.082C317.138 179.383 317.107 179.69 317.107 180.004V180.282C317.107 180.596 317.138 180.906 317.2 181.211C317.262 181.516 317.366 181.792 317.512 182.04C317.662 182.287 317.863 182.486 318.115 182.636C318.372 182.782 318.69 182.855 319.07 182.855Z" fill="white"></path>
	<path d="M302.132 189.936L299.849 196.222H298.916L301.545 189.325H302.146L302.132 189.936ZM304.045 196.222L301.758 189.936L301.743 189.325H302.345L304.983 196.222H304.045ZM303.927 193.669V194.417H300.052V193.669H303.927ZM305.77 188.946H306.651V195.227L306.575 196.222H305.77V188.946ZM310.113 193.616V193.716C310.113 194.088 310.069 194.434 309.98 194.753C309.892 195.069 309.763 195.344 309.592 195.577C309.422 195.811 309.213 195.993 308.967 196.122C308.72 196.252 308.438 196.316 308.119 196.316C307.794 196.316 307.508 196.261 307.262 196.151C307.018 196.037 306.813 195.874 306.646 195.663C306.478 195.451 306.344 195.195 306.243 194.895C306.145 194.595 306.077 194.257 306.04 193.882V193.446C306.077 193.067 306.145 192.728 306.243 192.428C306.344 192.128 306.478 191.872 306.646 191.66C306.813 191.445 307.018 191.283 307.262 191.172C307.505 191.059 307.787 191.002 308.109 191.002C308.432 191.002 308.717 191.065 308.967 191.191C309.216 191.314 309.425 191.491 309.592 191.722C309.763 191.952 309.892 192.229 309.98 192.551C310.069 192.87 310.113 193.225 310.113 193.616ZM309.232 193.716V193.616C309.232 193.361 309.208 193.121 309.161 192.896C309.114 192.669 309.038 192.47 308.934 192.3C308.829 192.126 308.692 191.99 308.522 191.892C308.351 191.791 308.141 191.741 307.892 191.741C307.671 191.741 307.478 191.779 307.314 191.854C307.153 191.93 307.015 192.033 306.902 192.162C306.788 192.289 306.695 192.434 306.622 192.598C306.553 192.759 306.501 192.926 306.466 193.1V194.242C306.516 194.463 306.598 194.676 306.712 194.881C306.829 195.083 306.984 195.249 307.176 195.378C307.372 195.508 307.614 195.573 307.901 195.573C308.138 195.573 308.34 195.525 308.507 195.431C308.678 195.333 308.815 195.198 308.919 195.028C309.027 194.857 309.106 194.66 309.156 194.436C309.207 194.212 309.232 193.972 309.232 193.716ZM313.272 195.596C313.481 195.596 313.673 195.554 313.85 195.468C314.027 195.383 314.172 195.266 314.286 195.118C314.4 194.966 314.464 194.794 314.48 194.602H315.314C315.298 194.905 315.195 195.187 315.006 195.449C314.82 195.708 314.575 195.918 314.272 196.079C313.969 196.237 313.636 196.316 313.272 196.316C312.887 196.316 312.551 196.248 312.263 196.113C311.979 195.977 311.742 195.791 311.553 195.554C311.367 195.317 311.226 195.045 311.131 194.739C311.04 194.43 310.994 194.103 310.994 193.759V193.56C310.994 193.215 311.04 192.89 311.131 192.584C311.226 192.274 311.367 192.001 311.553 191.764C311.742 191.528 311.979 191.341 312.263 191.205C312.551 191.07 312.887 191.002 313.272 191.002C313.673 191.002 314.024 191.084 314.324 191.248C314.624 191.409 314.859 191.63 315.03 191.911C315.203 192.189 315.298 192.505 315.314 192.859H314.48C314.464 192.647 314.404 192.456 314.3 192.285C314.199 192.115 314.06 191.979 313.883 191.878C313.71 191.774 313.506 191.722 313.272 191.722C313.004 191.722 312.778 191.775 312.595 191.883C312.415 191.987 312.271 192.129 312.164 192.309C312.06 192.486 311.984 192.683 311.937 192.901C311.892 193.116 311.87 193.335 311.87 193.56V193.759C311.87 193.983 311.892 194.204 311.937 194.422C311.981 194.64 312.055 194.837 312.159 195.014C312.267 195.191 312.41 195.333 312.59 195.44C312.773 195.544 313.001 195.596 313.272 195.596Z" fill="white"></path>
	<path d="M332.715 174.022V183.731H331.488V175.554L329.014 176.456V175.349L332.522 174.022H332.715ZM342.847 180.481V181.489H335.871V180.766L340.195 174.075H341.196L340.122 176.012L337.264 180.481H342.847ZM341.501 174.075V183.731H340.274V174.075H341.501ZM345.321 177.935V186.489H344.087V176.555H345.215L345.321 177.935ZM350.155 180.083V180.223C350.155 180.744 350.093 181.228 349.969 181.675C349.845 182.117 349.664 182.502 349.425 182.829C349.191 183.156 348.901 183.41 348.557 183.591C348.212 183.773 347.816 183.863 347.37 183.863C346.914 183.863 346.512 183.788 346.163 183.638C345.814 183.487 345.517 183.269 345.274 182.981C345.031 182.694 344.837 182.349 344.691 181.947C344.549 181.544 344.452 181.091 344.399 180.587V179.845C344.452 179.314 344.551 178.839 344.697 178.419C344.843 177.999 345.035 177.641 345.274 177.345C345.517 177.044 345.811 176.816 346.156 176.662C346.501 176.502 346.899 176.423 347.35 176.423C347.801 176.423 348.201 176.511 348.55 176.688C348.899 176.861 349.193 177.108 349.432 177.431C349.671 177.754 349.85 178.14 349.969 178.591C350.093 179.038 350.155 179.535 350.155 180.083ZM348.921 180.223V180.083C348.921 179.725 348.884 179.389 348.809 179.075C348.734 178.757 348.616 178.479 348.457 178.24C348.302 177.997 348.104 177.807 347.86 177.67C347.617 177.528 347.328 177.457 346.992 177.457C346.682 177.457 346.413 177.51 346.183 177.617C345.957 177.723 345.765 177.866 345.606 178.048C345.447 178.224 345.316 178.428 345.215 178.658C345.117 178.883 345.044 179.117 344.996 179.361V181.078C345.084 181.387 345.208 181.679 345.367 181.953C345.526 182.223 345.738 182.442 346.004 182.61C346.269 182.773 346.603 182.855 347.005 182.855C347.337 182.855 347.622 182.787 347.86 182.65C348.104 182.508 348.302 182.316 348.457 182.073C348.616 181.83 348.734 181.551 348.809 181.237C348.884 180.919 348.921 180.581 348.921 180.223ZM352.443 176.555L354.014 179.168L355.606 176.555H357.045L354.697 180.097L357.118 183.731H355.699L354.041 181.038L352.383 183.731H350.957L353.371 180.097L351.03 176.555H352.443Z" fill="white"></path>
	<path d="M325.026 189.316H325.102V190.059H325.026C324.562 190.059 324.173 190.135 323.861 190.287C323.548 190.435 323.3 190.636 323.117 190.888C322.934 191.138 322.801 191.419 322.719 191.731C322.64 192.044 322.601 192.361 322.601 192.683V193.697C322.601 194.003 322.637 194.275 322.71 194.512C322.782 194.745 322.882 194.943 323.008 195.104C323.134 195.265 323.277 195.386 323.434 195.468C323.596 195.551 323.763 195.592 323.937 195.592C324.139 195.592 324.319 195.554 324.477 195.478C324.634 195.399 324.767 195.29 324.874 195.151C324.985 195.009 325.069 194.842 325.125 194.649C325.182 194.456 325.211 194.245 325.211 194.014C325.211 193.809 325.185 193.612 325.135 193.422C325.084 193.23 325.007 193.059 324.903 192.911C324.799 192.759 324.668 192.641 324.51 192.555C324.355 192.467 324.17 192.423 323.955 192.423C323.712 192.423 323.485 192.483 323.273 192.603C323.065 192.72 322.893 192.874 322.757 193.067C322.625 193.256 322.549 193.463 322.53 193.687L322.066 193.683C322.11 193.329 322.192 193.027 322.312 192.778C322.435 192.525 322.587 192.32 322.767 192.162C322.95 192.001 323.153 191.884 323.378 191.812C323.605 191.736 323.845 191.698 324.098 191.698C324.442 191.698 324.739 191.763 324.988 191.892C325.238 192.022 325.443 192.195 325.604 192.413C325.765 192.628 325.883 192.871 325.959 193.143C326.038 193.411 326.078 193.687 326.078 193.972C326.078 194.297 326.032 194.602 325.94 194.886C325.849 195.17 325.711 195.419 325.528 195.634C325.348 195.849 325.125 196.016 324.86 196.136C324.595 196.256 324.287 196.316 323.937 196.316C323.564 196.316 323.239 196.241 322.961 196.089C322.683 195.934 322.452 195.729 322.269 195.473C322.086 195.217 321.949 194.933 321.857 194.621C321.766 194.308 321.72 193.991 321.72 193.669V193.256C321.72 192.77 321.769 192.293 321.867 191.826C321.965 191.359 322.133 190.935 322.373 190.557C322.617 190.178 322.953 189.876 323.382 189.652C323.812 189.428 324.36 189.316 325.026 189.316ZM328.091 192.082V198.192H327.21V191.097H328.015L328.091 192.082ZM331.544 193.616V193.716C331.544 194.088 331.499 194.434 331.411 194.753C331.323 195.069 331.193 195.344 331.023 195.577C330.855 195.811 330.648 195.993 330.402 196.122C330.156 196.252 329.873 196.316 329.554 196.316C329.229 196.316 328.942 196.263 328.692 196.155C328.443 196.048 328.231 195.892 328.057 195.686C327.884 195.481 327.745 195.235 327.641 194.947C327.54 194.66 327.47 194.336 327.432 193.976V193.446C327.47 193.067 327.541 192.728 327.645 192.428C327.75 192.128 327.887 191.872 328.057 191.66C328.231 191.445 328.441 191.283 328.687 191.172C328.934 191.059 329.218 191.002 329.54 191.002C329.862 191.002 330.148 191.065 330.397 191.191C330.647 191.314 330.857 191.491 331.027 191.722C331.198 191.952 331.326 192.229 331.411 192.551C331.499 192.87 331.544 193.225 331.544 193.616ZM330.663 193.716V193.616C330.663 193.361 330.636 193.121 330.582 192.896C330.528 192.669 330.445 192.47 330.331 192.3C330.22 192.126 330.078 191.99 329.905 191.892C329.731 191.791 329.524 191.741 329.284 191.741C329.063 191.741 328.871 191.779 328.706 191.854C328.545 191.93 328.408 192.033 328.294 192.162C328.181 192.289 328.087 192.434 328.015 192.598C327.945 192.759 327.893 192.926 327.858 193.1V194.327C327.922 194.548 328.01 194.756 328.124 194.952C328.237 195.145 328.389 195.301 328.578 195.421C328.768 195.538 329.006 195.596 329.294 195.596C329.531 195.596 329.734 195.547 329.905 195.449C330.078 195.348 330.22 195.211 330.331 195.037C330.445 194.864 330.528 194.665 330.582 194.441C330.636 194.213 330.663 193.972 330.663 193.716ZM333.178 191.097L334.3 192.963L335.437 191.097H336.465L334.788 193.626L336.517 196.222H335.503L334.319 194.298L333.135 196.222H332.117L333.841 193.626L332.169 191.097H333.178Z" fill="white"></path>
	<defs>
	<radialGradient id="paint0_radial_741_1024" cx="0" cy="0" r="1" gradientUnits="userSpaceOnUse" gradientTransform="translate(243 33.4671) rotate(90) scale(2.42515 243)">
	<stop offset="0.361598"></stop>
	<stop offset="1" stop-color="#D9D9D9" stop-opacity="0"></stop>
	</radialGradient>
	<radialGradient id="paint1_radial_741_1024" cx="0" cy="0" r="1" gradientUnits="userSpaceOnUse" gradientTransform="translate(243 130.473) rotate(90) scale(2.42515 243)">
	<stop offset="0.361598"></stop>
	<stop offset="1" stop-color="#D9D9D9" stop-opacity="0"></stop>
	</radialGradient>
	<radialGradient id="paint2_radial_741_1024" cx="0" cy="0" r="1" gradientUnits="userSpaceOnUse" gradientTransform="translate(243 227.479) rotate(90) scale(2.42515 243)">
	<stop offset="0.361598"></stop>
	<stop offset="1" stop-color="#D9D9D9" stop-opacity="0"></stop>
	</radialGradient>
	</defs>
	</svg>
